<?xml version="1.0" encoding="UTF-8" standalone="no"?>
<svg
   id="Discord-Logo"
   viewBox="0 0 128 128"
   version="1.1"
   sodipodi:docname="discord.svg"
   width="256"
   height="256"
   inkscape:version="1.4 (e7c3feb1, 2024-10-09)"
   xmlns:inkscape="http://www.inkscape.org/namespaces/inkscape"
   xmlns:sodipodi="http://sodipodi.sourceforge.net/DTD/sodipodi-0.dtd"
   xmlns="http://www.w3.org/2000/svg"
   xmlns:svg="http://www.w3.org/2000/svg">
  <sodipodi:namedview
     id="namedview1"
     pagecolor="#505050"
     bordercolor="#eeeeee"
     borderopacity="1"
     inkscape:showpageshadow="false"
     inkscape:pageopacity="0"
     inkscape:pagecheckerboard="false"
     inkscape:deskcolor="#505050"
     labelstyle="default"
     inkscape:clip-to-page="false"
     inkscape:zoom="2.1469907"
     inkscape:cx="107.59246"
     inkscape:cy="133.67547"
     inkscape:window-width="1456"
     inkscape:window-height="872"
     inkscape:window-x="8"
     inkscape:window-y="48"
     inkscape:window-maximized="0"
     inkscape:current-layer="Discord-Logo" />
  <defs
     id="defs1">
    <style
       id="style1">.cls-1{fill:#fff;}</style>
  </defs>
  <path
     id="Discord-Symbol-White"
     class="cls-1"
     d="m 81.828026,15.999999 c -1.2376,2.1973 -2.3489,4.4704 -3.3591,6.794 -9.5975,-1.4396 -19.3718,-1.4396 -28.9945,0 -0.985,-2.3236 -2.1216,-4.5967 -3.3591,-6.794 -9.0166,1.5407 -17.8059,4.2431 -26.1405,8.0568 C 3.4570253,48.5304 -1.0133747,72.3725 1.2092253,95.886299 10.882426,103.0339 21.717526,108.4893 33.259726,111.9747 c 2.6014,-3.4854 4.8998,-7.1981 6.8698,-11.0623 -3.738,-1.389101 -7.3497,-3.131801 -10.8098,-5.152301 0.9092,-0.6567 1.7932,-1.3386 2.6519,-1.9953 20.281,9.547001 43.7696,9.547001 64.0758,0 0.8587,0.7072 1.7427,1.3891 2.6519,1.9953 -3.4601,2.0457 -7.0718,3.7632 -10.835,5.177601 1.97,3.8642 4.2683,7.5769 6.8698,11.0623 11.541894,-3.4854 22.376894,-8.9156 32.050894,-16.063101 2.626,-27.2771 -4.496,-50.9172 -18.817,-71.8548 -8.308894,-3.8137 -17.098194,-6.5162 -26.114794,-8.0316 z M 42.958226,81.4144 c -6.2383,0 -11.4159,-5.6575 -11.4159,-12.6535 0,-6.996 4.9755,-12.6788 11.3907,-12.6788 6.4152,0 11.5169,5.708 11.4159,12.6788 -0.101,6.9708 -5.026,12.6535 -11.3907,12.6535 z m 42.0774,0 c -6.2637,0 -11.3907,-5.6575 -11.3907,-12.6535 0,-6.996 4.9755,-12.6788 11.3907,-12.6788 6.4152,0 11.4917,5.708 11.3906,12.6788 -0.101,6.9708 -5.026,12.6535 -11.3906,12.6535 z" />
</svg>
