<?xml version="1.0" encoding="UTF-8" standalone="no"?>
<svg
   viewBox="0 0 1448 1447"
   version="1.1"
   id="svg7"
   sodipodi:docname="steam.svg"
   inkscape:version="1.4 (e7c3feb1, 2024-10-09)"
   xmlns:inkscape="http://www.inkscape.org/namespaces/inkscape"
   xmlns:sodipodi="http://sodipodi.sourceforge.net/DTD/sodipodi-0.dtd"
   xmlns="http://www.w3.org/2000/svg"
   xmlns:svg="http://www.w3.org/2000/svg">
  <defs
     id="defs7" />
  <sodipodi:namedview
     id="namedview7"
     pagecolor="#505050"
     bordercolor="#eeeeee"
     borderopacity="1"
     inkscape:showpageshadow="0"
     inkscape:pageopacity="0"
     inkscape:pagecheckerboard="0"
     inkscape:deskcolor="#505050"
     inkscape:zoom="0.24265518"
     inkscape:cx="224.59854"
     inkscape:cy="783.0041"
     inkscape:window-width="1456"
     inkscape:window-height="872"
     inkscape:window-x="8"
     inkscape:window-y="48"
     inkscape:window-maximized="0"
     inkscape:current-layer="svg7" />
  <g
     fill="none"
     stroke="gray"
     stroke-width="2"
     id="g3">
    <path
       d="M690.57 60.57C354.63 77.98 84.37 343.48 61.82 679.19a.7.7-76 0 0 .42.7q5.58 2.53 11.26 4.87 172.39 70.91 344.77 141.85a.94.77 37.1 0 0 .8-.03q49.23-31.71 108.18-30.07a1.07.66-65.1 0 0 .74-.49l161.96-235.3a1.76 1.5-31.8 0 0 .31-.97c-2-86.32 43.9-168.72 115.82-214.9 42.17-27.08 91.68-41.18 142.11-39.85 134.02 3.54 242.46 112.2 245.49 245.98 1.71 75.64-30.5 148.83-87.61 197.61q-72.41 61.85-169.58 61.16a1.74 1.56 24.7 0 0-.97.3L704.45 975.2a2.42 2.4-18.6 0 0-1.02 2.04c2.08 64.01-32.26 126.13-86.16 159.53-109.02 67.54-247.55 7.76-276.74-115.74a.74.51 88.4 0 0-.34-.47L89.76 917.22q-.76-.31-.51.5c68.29 221.77 247 392.1 471.86 449.33 94.95 24.16 194.52 26.34 290.59 7.92 236.76-45.39 434.13-222.41 505.63-452.49 86.35-277.9-16.21-576.04-252.3-742.52C985.16 95.44 837.68 52.95 690.57 60.57"
       vector-effect="non-scaling-stroke"
       id="path1" />
    <path
       d="M941.93 725.55a168.27 168.13 90 0 0 168.13-168.27 168.27 168.13 90 0 0-168.13-168.27A168.27 168.13 90 0 0 773.8 557.28a168.27 168.13 90 0 0 168.13 168.27M470.42 848.3q35.7 14.74 71.35 29.57 15.19 6.32 18.38 7.89c65.54 32.41 78.98 121.01 24.99 170.52q-27.35 25.09-64.84 27.64c-14.46.98-30.95-1.57-43.99-6.96q-41.92-17.33-83.5-34.55-.93-.39-.49.52c29.1 59.86 95.99 92.43 161.45 75.94 95.9-24.16 138.89-135.26 83.82-217.76-36.72-55.02-105.74-76.09-167.15-53.66q-1.11.41-.02.85"
       vector-effect="non-scaling-stroke"
       id="path2" />
    <path
       d="M1068.26 556.98a126.05 126.05 0 0 0-126.05-126.05 126.05 126.05 0 0 0-126.05 126.05 126.05 126.05 0 0 0 126.05 126.05 126.05 126.05 0 0 0 126.05-126.05"
       vector-effect="non-scaling-stroke"
       id="path3" />
  </g>
  <path
     fill="#fff"
     d="M61.82 679.19C84.37 343.48 354.63 77.98 690.57 60.57c147.11-7.62 294.59 34.87 414.46 119.39 236.09 166.48 338.65 464.62 252.3 742.52-71.5 230.08-268.87 407.1-505.63 452.49-96.07 18.42-195.64 16.24-290.59-7.92-224.86-57.23-403.57-227.56-471.86-449.33q-.25-.81.51-.5l250.43 103.34a.74.51 88.4 0 1 .34.47c29.19 123.5 167.72 183.28 276.74 115.74 53.9-33.4 88.24-95.52 86.16-159.53a2.42 2.4-18.6 0 1 1.02-2.04l231.07-165.15a1.74 1.56 24.7 0 1 .97-.3q97.17.69 169.58-61.16c57.11-48.78 89.32-121.97 87.61-197.61-3.03-133.78-111.47-242.44-245.49-245.98-50.43-1.33-99.94 12.77-142.11 39.85-71.92 46.18-117.82 128.58-115.82 214.9a1.76 1.5-31.8 0 1-.31.97l-161.96 235.3a1.07.66-65.1 0 1-.74.49q-58.95-1.64-108.18 30.07a.94.77 37.1 0 1-.8.03Q245.89 755.67 73.5 684.76q-5.68-2.34-11.26-4.87a.7.7-76.1 0 1-.42-.7Z"
     id="path5" />
  <path
     fill="#fff"
     d="M941.93 725.55A168.27 168.13 90 0 1 773.8 557.28a168.27 168.13 90 0 1 168.13-168.27 168.27 168.13 90 0 1 168.13 168.27 168.27 168.13 90 0 1-168.13 168.27Zm126.33-168.57a126.05 126.05 0 0 0-126.05-126.05 126.05 126.05 0 0 0-126.05 126.05 126.05 126.05 0 0 0 126.05 126.05 126.05 126.05 0 0 0 126.05-126.05Z"
     id="path6" />
  <path
     fill="#fff"
     d="M470.42 848.3q-1.09-.44.02-.85c61.41-22.43 130.43-1.36 167.15 53.66 55.07 82.5 12.08 193.6-83.82 217.76-65.46 16.49-132.35-16.08-161.45-75.94q-.44-.91.49-.52 41.58 17.22 83.5 34.55c13.04 5.39 29.53 7.94 43.99 6.96q37.49-2.55 64.84-27.64c53.99-49.51 40.55-138.11-24.99-170.52q-3.19-1.57-18.38-7.89-35.65-14.83-71.35-29.57Z"
     id="path7" />
</svg>
